{
    "asset" : {
        "generator" : "Khronos glTF Blender I/O v1.7.17",
        "version" : "2.0"
    },
    "scene" : 0,
    "scenes" : [
        {
            "name" : "Scene",
            "nodes" : [
                0
            ]
        }
    ],
    "nodes" : [
        {
            "mesh" : 0,
            "name" : "palmttree.002",
            "rotation" : [
                0.5284219980239868,
                0.5736422538757324,
                -0.5485716462135315,
                0.30128738284111023
            ],
            "scale" : [
                0.2653188109397888,
                0.2653188407421112,
                0.2653188407421112
            ],
            "translation" : [
                1.4166231155395508,
                0.8855672478675842,
                -0.5119011402130127
            ]
        }
    ],
    "materials" : [
        {
            "doubleSided" : true,
            "name" : "Material.005",
            "pbrMetallicRoughness" : {
                "baseColorFactor" : [
                    0.007706936448812485,
                    0.8000000715255737,
                    0,
                    1
                ],
                "metallicFactor" : 0,
                "roughnessFactor" : 0.5
            }
        },
        {
            "doubleSided" : true,
            "name" : "Material.004",
            "pbrMetallicRoughness" : {
                "baseColorFactor" : [
                    0.38436800241470337,
                    0.0985952615737915,
                    0.0196127537637949,
                    1
                ],
                "metallicFactor" : 0,
                "roughnessFactor" : 0.5
            }
        }
    ],
    "meshes" : [
        {
            "name" : "BezierCurve.002",
            "primitives" : [
                {
                    "attributes" : {
                        "POSITION" : 0,
                        "NORMAL" : 1
                    },
                    "indices" : 2,
                    "material" : 0
                },
                {
                    "attributes" : {
                        "POSITION" : 3,
                        "NORMAL" : 4
                    },
                    "indices" : 5,
                    "material" : 1
                }
            ]
        }
    ],
    "accessors" : [
        {
            "bufferView" : 0,
            "componentType" : 5126,
            "count" : 915,
            "max" : [
                5.105588912963867,
                4.5086846351623535,
                2.218189001083374
            ],
            "min" : [
                -2.6885125637054443,
                -4.098244667053223,
                -0.7103395462036133
            ],
            "type" : "VEC3"
        },
        {
            "bufferView" : 1,
            "componentType" : 5126,
            "count" : 915,
            "type" : "VEC3"
        },
        {
            "bufferView" : 2,
            "componentType" : 5123,
            "count" : 3240,
            "type" : "SCALAR"
        },
        {
            "bufferView" : 3,
            "componentType" : 5126,
            "count" : 4116,
            "max" : [
                1.4211105108261108,
                1.5077579021453857,
                6.366777420043945
            ],
            "min" : [
                0.15021991729736328,
                -0.13096493482589722,
                0.036386966705322266
            ],
            "type" : "VEC3"
        },
        {
            "bufferView" : 4,
            "componentType" : 5126,
            "count" : 4116,
            "type" : "VEC3"
        },
        {
            "bufferView" : 5,
            "componentType" : 5123,
            "count" : 6924,
            "type" : "SCALAR"
        }
    ],
    "bufferViews" : [
        {
            "buffer" : 0,
            "byteLength" : 10980,
            "byteOffset" : 0
        },
        {
            "buffer" : 0,
            "byteLength" : 10980,
            "byteOffset" : 10980
        },
        {
            "buffer" : 0,
            "byteLength" : 6480,
            "byteOffset" : 21960
        },
        {
            "buffer" : 0,
            "byteLength" : 49392,
            "byteOffset" : 28440
        },
        {
            "buffer" : 0,
            "byteLength" : 49392,
            "byteOffset" : 77832
        },
        {
            "buffer" : 0,
            "byteLength" : 13848,
            "byteOffset" : 127224
        }
    ],
    "buffers" : [
        {
            "byteLength" : 141072,
            "uri" : "data:application/octet-stream;base64,"
        }
    ]
}
